<svg width="472" height="698" viewBox="0 0 472 698" fill="none" xmlns="http://www.w3.org/2000/svg">
<path d="M161 0V314C161 325.046 169.954 334 181 334H291C302.046 334 311 342.954 311 354V698" stroke="#9B9B9C" stroke-width="2" stroke-dasharray="4 4"/>
<path d="M0.292893 99.2929C-0.0976311 99.6834 -0.0976311 100.317 0.292893 100.707L6.65685 107.071C7.04738 107.462 7.68054 107.462 8.07107 107.071C8.46159 106.681 8.46159 106.047 8.07107 105.657L2.41421 100L8.07107 94.3431C8.46159 93.9526 8.46159 93.3195 8.07107 92.9289C7.68054 92.5384 7.04738 92.5384 6.65685 92.9289L0.292893 99.2929ZM1 101H3L3 99H1L1 101ZM7 101H11V99H7V101ZM15 101H19V99H15V101ZM23 101H27V99H23V101ZM31 101H35V99H31V101ZM39 101H43V99H39V101ZM47 101H51V99H47V101ZM55 101H59V99H55V101ZM63 101H67V99H63V101ZM71 101H75V99H71V101ZM79 101H83V99H79V101ZM87 101L91 101V99L87 99V101ZM95 101H99V99H95V101ZM103 101H107V99H103V101ZM111 101H115V99H111V101ZM119 101H123V99H119V101ZM127 101H131V99H127V101ZM135 101H139V99H135V101ZM143 101L147 101V99L143 99V101ZM151 101H155V99H151V101ZM159 101H161V99H159V101Z" fill="#9B9B9C"/>
<circle cx="161" cy="100" r="5" fill="white" stroke="#9B9B9C" stroke-width="2"/>
<path d="M150.293 463.293C149.902 463.683 149.902 464.317 150.293 464.707L156.657 471.071C157.047 471.462 157.681 471.462 158.071 471.071C158.462 470.681 158.462 470.047 158.071 469.657L152.414 464L158.071 458.343C158.462 457.953 158.462 457.319 158.071 456.929C157.681 456.538 157.047 456.538 156.657 456.929L150.293 463.293ZM151 465H153V463H151V465ZM157 465H161V463H157V465ZM165 465H169V463H165V465ZM173 465H177V463H173V465ZM181 465H185V463H181V465ZM189 465H193V463H189V465ZM197 465H201V463H197V465ZM205 465H209V463H205V465ZM213 465H217V463H213V465ZM221 465H225V463H221V465ZM229 465H233V463H229V465ZM237 465H241V463H237V465ZM245 465H249V463H245V465ZM253 465H257V463H253V465ZM261 465H265V463H261V465ZM269 465H273V463H269V465ZM277 465H281V463H277V465ZM285 465H289V463H285V465ZM293 465H297V463H293V465ZM301 465H305V463H301V465ZM309 465H311V463H309V465Z" fill="#9B9B9C"/>
<circle cx="311" cy="464" r="5" fill="white" stroke="#9B9B9C" stroke-width="2"/>
<path d="M321.707 234.707C322.098 234.317 322.098 233.683 321.707 233.293L315.343 226.929C314.953 226.538 314.319 226.538 313.929 226.929C313.538 227.319 313.538 227.953 313.929 228.343L319.586 234L313.929 239.657C313.538 240.047 313.538 240.681 313.929 241.071C314.319 241.462 314.953 241.462 315.343 241.071L321.707 234.707ZM161 235H163V233H161V235ZM167 235H171V233H167V235ZM175 235H179V233H175V235ZM183 235H187V233H183V235ZM191 235H195V233H191V235ZM199 235H203V233H199V235ZM207 235H211V233H207V235ZM215 235H219V233H215V235ZM223 235H227V233H223V235ZM231 235H235V233H231V235ZM239 235H243V233H239V235ZM247 235H251V233H247V235ZM255 235H259V233H255V235ZM263 235H267V233H263V235ZM271 235H275V233H271V235ZM279 235H283V233H279V235ZM287 235H291V233H287V235ZM295 235H299V233H295V235ZM303 235H307V233H303V235ZM311 235H315V233H311V235ZM319 235H321V233H319V235Z" fill="#9B9B9C"/>
<circle cx="161" cy="234" r="5" fill="white" stroke="#9B9B9C" stroke-width="2"/>
<path d="M471.707 598.707C472.098 598.317 472.098 597.683 471.707 597.293L465.343 590.929C464.953 590.538 464.319 590.538 463.929 590.929C463.538 591.319 463.538 591.953 463.929 592.343L469.586 598L463.929 603.657C463.538 604.047 463.538 604.681 463.929 605.071C464.319 605.462 464.953 605.462 465.343 605.071L471.707 598.707ZM311 599H313V597H311V599ZM317 599H321V597H317V599ZM325 599H329V597H325V599ZM333 599H337V597H333V599ZM341 599H345V597H341V599ZM349 599H353V597H349V599ZM357 599H361V597H357V599ZM365 599H369V597H365V599ZM373 599H377V597H373V599ZM381 599H385V597H381V599ZM389 599H393V597H389V599ZM397 599H401V597H397V599ZM405 599H409V597H405V599ZM413 599H417V597H413V599ZM421 599H425V597H421V599ZM429 599H433V597H429V599ZM437 599H441V597H437V599ZM445 599H449V597H445V599ZM453 599H457V597H453V599ZM461 599H465V597H461V599ZM469 599H471V597H469V599Z" fill="#9B9B9C"/>
<circle cx="311" cy="598" r="5" fill="white" stroke="#9B9B9C" stroke-width="2"/>
</svg>
