<svg width="49" height="26" viewBox="0 0 49 26" fill="none" xmlns="http://www.w3.org/2000/svg">
<rect x="23.5" y="0.5" width="25" height="25" rx="12.5" stroke="#00194C"/>
<path d="M1 12.5C0.723858 12.5 0.5 12.7239 0.5 13C0.5 13.2761 0.723858 13.5 1 13.5V12.5ZM36.3536 13.3536C36.5488 13.1583 36.5488 12.8417 36.3536 12.6464L33.1716 9.46447C32.9763 9.2692 32.6597 9.2692 32.4645 9.46447C32.2692 9.65973 32.2692 9.97631 32.4645 10.1716L35.2929 13L32.4645 15.8284C32.2692 16.0237 32.2692 16.3403 32.4645 16.5355C32.6597 16.7308 32.9763 16.7308 33.1716 16.5355L36.3536 13.3536ZM1 13.5H36V12.5H1V13.5Z" fill="#00194C"/>
</svg>
